<svg width="50" height="50" viewBox="0 0 50 50" fill="none" xmlns="http://www.w3.org/2000/svg">
<g clip-path="url(#clip0_36_9)">
<path d="M7.45833 44.1583H37.1646L35.7458 39.5646L39.1396 42.4771L42.25 45.2646L47.9166 50V5.15624C47.775 2.36874 45.375 -7.62939e-06 42.4 -7.62939e-06L7.46874 0.00624237C4.49583 0.00624237 2.08333 2.37916 2.08333 5.16666V39C2.08333 41.9396 4.49166 44.1583 7.45833 44.1583ZM29.4333 11.8396L29.3646 11.8646L29.3896 11.8396H29.4333ZM13.5354 14.4833C17.3542 11.7042 20.8937 11.8375 20.8937 11.8375L21.1792 12.1187C16.5062 13.2333 14.3875 15.3208 14.3875 15.3208C14.3875 15.3208 14.9542 15.0437 15.9437 14.6208C22.2375 12.1458 29.1104 12.325 35.4729 15.4583C35.4729 15.4583 33.35 13.5062 28.9646 12.2562L29.3521 11.875C29.9583 11.8771 33.1667 11.9896 36.6 14.5C36.6 14.5 40.4416 21.0625 40.4416 29.125C40.3146 28.9708 38.0583 32.5958 32.2521 32.7208C32.2521 32.7208 31.2687 31.6083 30.5687 30.6375C33.9646 29.6625 35.2354 27.7125 35.2354 27.7125C34.1208 28.4146 33.1042 28.8312 32.2792 29.2479C31.0104 29.8062 29.7396 30.0812 28.4708 30.3625C22.4625 31.3375 19.0896 29.7062 15.9021 28.4125L14.8125 27.8583C14.8125 27.8583 16.0812 29.8083 19.3417 30.7833C18.4854 31.7604 17.6375 32.8708 17.6375 32.8708C11.8333 32.7333 9.71666 29.1083 9.71666 29.1083C9.71666 21.0333 13.5354 14.4833 13.5354 14.4833Z" fill="#333"/>
<path d="M29.8083 26.6063C31.2896 26.6063 32.4958 25.3563 32.4958 23.8146C32.4958 22.2833 31.2958 21.0333 29.8083 21.0333V21.0396C28.3333 21.0396 27.125 22.2854 27.1208 23.8271C27.1208 25.3563 28.3271 26.6063 29.8083 26.6063Z" fill="#333"/>
<path d="M20.1875 26.6063C21.6688 26.6063 22.875 25.3563 22.875 23.8146C22.875 22.2833 21.6771 21.0333 20.1958 21.0333L20.1875 21.0396C18.7063 21.0396 17.5 22.2854 17.5 23.8271C17.5 25.3563 18.7063 26.6063 20.1875 26.6063Z" fill="#333"/>
</g>
<defs>
<clipPath id="clip0_36_9">
<rect width="50" height="50" fill="white"/>
</clipPath>
</defs>
</svg>
