<svg width="39" height="37" viewBox="0 0 39 37" fill="none" xmlns="http://www.w3.org/2000/svg">
<path d="M34 -5H2C-0.76 -5 -3 -2.76 -3 0V32C-3 34.76 -0.76 37 2 37H34C36.76 37 39 34.76 39 32V0C39 -2.76 36.76 -5 34 -5ZM10 11V30H4V11H10ZM4 5.47C4 4.07 5.2 3 7 3C8.8 3 9.93 4.07 10 5.47C10 6.87 8.88 8 7 8C5.2 8 4 6.87 4 5.47ZM32 30H26C26 30 26 20.74 26 20C26 18 25 16 22.5 15.96H22.42C20 15.96 19 18.02 19 20C19 20.91 19 30 19 30H13V11H19V13.56C19 13.56 20.93 11 24.81 11C28.78 11 32 13.73 32 19.26V30Z" fill="#333"/>
</svg>
